<svg width="1600" height="900" viewBox="0 0 1600 900" fill="none" xmlns="http://www.w3.org/2000/svg">
  <rect width="1600" height="900" rx="48" fill="#171922"/>
  <g stroke="#343842" stroke-width="4" opacity="0.9">
    <path d="M-40 190C210 80 312 142 476 220C650 304 862 287 1050 212C1260 128 1460 112 1640 158"/>
    <path d="M-10 360C176 280 370 272 542 330C720 390 876 404 1038 344C1214 278 1416 260 1612 320"/>
    <path d="M-60 560C166 458 356 472 534 550C692 620 884 628 1058 560C1234 490 1438 466 1632 520"/>
    <path d="M-40 742C202 640 372 664 554 740C706 804 906 804 1092 724C1274 646 1448 632 1640 688"/>
    <path d="M180 -40C120 182 146 336 214 510C270 654 290 758 248 940"/>
    <path d="M454 -30C390 148 402 340 466 512C526 674 558 794 526 940"/>
    <path d="M748 -20C690 170 706 350 764 522C816 678 844 798 822 938"/>
    <path d="M1058 -40C1008 142 1008 322 1066 498C1126 684 1160 808 1130 942"/>
    <path d="M1352 -30C1294 154 1316 338 1378 514C1436 680 1462 786 1422 938"/>
    <path d="M40 118C154 194 252 320 326 418C412 532 534 628 678 676C838 728 1008 698 1174 622C1322 554 1458 544 1568 574"/>
    <path d="M52 796C188 718 310 604 386 488C452 386 560 286 716 240C884 190 1082 220 1234 286C1368 344 1484 352 1580 330"/>
  </g>
</svg>
