<svg xmlns="http://www.w3.org/2000/svg" viewBox="197 115 155 177" width="32" height="32"><rect width="155" height="177" x="197" y="115" fill="#1E2129" rx="8"/><g fill="#C0C5CB" fill-rule="evenodd" transform="scale(0.7) translate(120, 80)"><path d="M222.03168,138.46571c-0.13522,-15.83119 0.03643,-21.89396 0.64178,-22.62333c0.70204,-0.84568 6.8846,-0.95989 40.82349,-0.7532c45.41547,0.27676 43.83194,0.09529 56.81173,6.50347c14.17484,6.99738 23.5026,17.77203 28.97736,33.47007c2.36632,6.7846 2.49317,7.61601 2.48524,16.25851c-0.00965,10.93816 -1.04029,15.47606 -5.64367,24.84655c-2.75066,5.60128 -4.24663,7.61566 -9.63316,12.97496c-6.60571,6.57262 -12.4717,10.50764 -19.5138,13.08802c-2.21638,0.81278 -4.02878,1.70968 -4.02878,1.99406c0,0.28368 1.51665,2.84338 3.37145,5.68641c1.85445,2.84338 7.25373,11.31767 11.99948,18.83234c4.74539,7.51433 10.4418,16.50014 12.65922,19.96845c6.95248,10.87681 11.90676,19.2832 11.90676,20.20319c0,2.39838 -1.45805,2.56797 -22.10211,2.56797c-18.58175,0 -20.51479,-0.11065 -21.46787,-1.22607c-0.95205,-1.11543 -4.13736,-6.18691 -22.07384,-35.14979l-5.82257,-9.40118v-24.70558c0,-19.96742 -0.17373,-25.15988 2.0037,-26.48213c0.92205,-0.56048 2.26671,-0.4257 4.22525,-0.4257c10.07368,0 18.83061,-5.29277 22.60433,-13.66297c1.2016,-2.66517 1.57215,-4.76022 1.54837,-8.75798c-0.04137,-7.01624 -1.98716,-11.49416 -6.97694,-16.0548c-5.3686,-4.90672 -8.17338,-5.66538 -20.9336,-5.66538h-10.59106l-2.67413,-3.50684c-3.82437,-5.01457 -6.59537,-7.18659 -8.54392,-6.69754c-0.88001,0.22071 -9.6597,4.99427 -19.51104,10.6087c-9.85169,5.61334 -18.46145,10.10056 -19.13409,9.97164c-1.12595,-0.21647 -1.23666,-1.93477 -1.40759,-21.86185zM240.43419,158.47622c9.24882,-5.24555 17.90753,-10.09838 19.2408,-10.78292c1.33397,-0.68453 2.63932,-1.24504 2.9006,-1.24504c0.98238,0 3.48865,2.73883 11.40109,12.46329c6.13141,7.53466 8.14649,10.50351 8.14649,12.00051c0,2.37804 -1.02581,3.35629 -3.85368,3.67582l-2.10194,0.23681l-0.17925,57.38667c-0.13133,41.95956 -0.39605,57.64692 -0.98445,58.35664c-0.58667,0.70697 -2.24913,0.91516 -6.12659,0.76729l-5.32138,-0.20234l-0.17959,-58.32941c-0.12099,-39.58532 -0.41191,-58.32907 -0.90379,-58.32907c-0.39778,0 -2.02129,0.66181 -3.60687,1.47047c-3.49829,1.78448 -53.5291,29.7743 -55.71657,31.16996c-2.2827,1.45736 -4.22702,1.21057 -5.47488,-0.69353c-1.04747,-1.59835 -0.90455,-2.19673 2.79771,-11.73613c7.47807,-19.26941 5.9114,-16.9703 15.09063,-22.13692c4.43094,-2.49455 15.62314,-8.82692 24.87165,-14.07212zM212.23304,209.29027c1.8217,-1.35154 31.86697,-18.38148 40.81315,-23.13343c2.65656,-1.41083 2.90956,-1.416 3.42798,-0.06446c0.53186,1.38532 0.54599,20.44241 0.01689,22.41267c-0.24715,0.92068 -2.09711,2.28532 -5.06975,3.74061c-2.57486,1.25985 -10.11952,5.27657 -16.76728,8.92722c-11.34997,6.23137 -12.08634,6.76048 -12.08634,8.67111c0,3.25874 1.99054,3.80301 6.05572,1.65694c6.50423,-3.43384 13.94859,-7.49468 20.06655,-10.94678c3.38489,-1.90926 6.62398,-3.29183 7.1972,-3.07191c0.88207,0.33849 1.01375,2.43078 0.85278,13.5537l-0.19062,13.15317l-16.25645,0.35021c-10.69274,0.2306 -16.5271,0.6208 -17.04555,1.14094c-0.43441,0.435 -0.68594,1.69624 -0.55913,2.80236l0.22981,2.01232l33.63131,0.70076v13.31242l-16.05962,0.18855c-10.77678,0.12685 -16.37709,0.45258 -17.02659,0.99134c-0.54582,0.45327 -0.87511,1.74449 -0.75598,2.96437l0.21088,2.16157l33.63131,0.70076l0.19682,9.01098c0.13167,6.04524 -0.06929,9.33052 -0.61149,9.98439c-0.65733,0.79177 -4.78711,0.97307 -22.13795,0.97307c-13.36354,0 -21.83652,-0.27127 -22.6857,-0.72524c-1.31511,-0.70421 -1.35506,-1.8903 -1.35506,-40.2516v-39.52672z"/></g></svg>