<svg xmlns="http://www.w3.org/2000/svg" width="155" height="177" viewBox="197 115 155 177"><g fill="#c0c5cb" fill-rule="evenodd" stroke-miterlimit="10" data-paper-data="{&quot;fillRule&quot;:&quot;evenodd&quot;,&quot;fillRuleOriginal&quot;:&quot;evenodd&quot;,&quot;isIcon&quot;:true,&quot;iconStyle&quot;:&quot;standalone&quot;,&quot;selectedEffects&quot;:{&quot;container&quot;:&quot;&quot;,&quot;transformation&quot;:&quot;&quot;,&quot;pattern&quot;:&quot;&quot;},&quot;bounds&quot;:{&quot;x&quot;:197.1112222419185,&quot;y&quot;:115,&quot;width&quot;:155.777555516163,&quot;height&quot;:176.48318368678434},&quot;iconType&quot;:&quot;icon&quot;,&quot;isDetailed&quot;:false,&quot;source&quot;:&quot;ai&quot;,&quot;rawIconId&quot;:&quot;yS7jEfIlsdy0jHuwrTEEWQTQbLbOqIhjZauEl2Kths&quot;,&quot;suitableAsStandaloneIcon&quot;:true}" font-family="none" font-size="none" font-weight="none" style="mix-blend-mode:normal" text-anchor="none"><path d="M222.032 138.466c-.136-15.831.036-21.894.641-22.624.703-.845 6.885-.96 40.824-.753 45.415.277 43.832.095 56.812 6.504 14.175 6.997 23.502 17.772 28.977 33.47 2.366 6.784 2.493 7.616 2.485 16.258-.01 10.938-1.04 15.476-5.643 24.847-2.751 5.601-4.247 7.615-9.634 12.975-6.605 6.572-12.471 10.507-19.513 13.088-2.217.813-4.03 1.71-4.03 1.994 0 .283 1.518 2.843 3.372 5.686 1.855 2.844 7.254 11.318 12 18.833a5818 5818 0 0 0 12.659 19.968c6.953 10.877 11.907 19.283 11.907 20.203 0 2.399-1.458 2.568-22.102 2.568-18.582 0-20.515-.11-21.468-1.226s-4.138-6.187-22.074-35.15l-5.823-9.4V221c0-19.968-.173-25.16 2.004-26.483.922-.56 2.267-.425 4.225-.425 10.074 0 18.831-5.293 22.605-13.663 1.201-2.665 1.572-4.76 1.548-8.758-.041-7.016-1.987-11.494-6.977-16.055-5.368-4.907-8.173-5.665-20.933-5.665h-10.592l-2.674-3.507c-3.824-5.015-6.595-7.187-8.544-6.698-.88.22-9.66 4.994-19.51 10.609-9.852 5.613-18.462 10.1-19.135 9.972-1.126-.217-1.236-1.935-1.407-21.862m18.402 20.01c9.249-5.245 17.908-10.098 19.241-10.783 1.334-.684 2.64-1.245 2.9-1.245.983 0 3.49 2.74 11.402 12.464 6.131 7.534 8.146 10.503 8.146 12 0 2.378-1.026 3.356-3.854 3.676l-2.101.237-.18 57.386c-.131 41.96-.396 57.647-.984 58.357-.587.707-2.25.915-6.127.767l-5.321-.202-.18-58.33c-.12-39.585-.412-58.329-.904-58.329-.397 0-2.02.662-3.606 1.47-3.499 1.785-53.53 29.775-55.717 31.17-2.283 1.458-4.227 1.211-5.475-.693-1.047-1.598-.904-2.196 2.798-11.736 7.478-19.27 5.911-16.97 15.09-22.137 4.431-2.494 15.624-8.827 24.872-14.072m-28.201 50.814c1.822-1.351 31.867-18.381 40.813-23.133 2.657-1.411 2.91-1.416 3.428-.065.532 1.386.546 20.443.017 22.413-.247.92-2.097 2.285-5.07 3.74-2.575 1.26-10.12 5.277-16.767 8.928-11.35 6.231-12.086 6.76-12.086 8.671 0 3.259 1.99 3.803 6.055 1.657a866 866 0 0 0 20.067-10.947c3.385-1.91 6.624-3.292 7.197-3.072.882.339 1.014 2.431.853 13.554l-.19 13.153-16.257.35c-10.693.23-16.527.621-17.046 1.141-.434.435-.686 1.696-.559 2.803l.23 2.012 33.631.7v13.313l-16.06.189c-10.776.127-16.376.452-17.026.991-.546.453-.875 1.744-.756 2.964l.211 2.162 33.631.7.197 9.012c.132 6.045-.07 9.33-.611 9.984-.658.792-4.787.973-22.138.973-13.364 0-21.837-.271-22.686-.725-1.315-.704-1.355-1.89-1.355-40.252V210.98z" data-paper-data="{&quot;isPathIcon&quot;:true}"/></g></svg>