<svg xmlns="http://www.w3.org/2000/svg" xmlns:xlink="http://www.w3.org/1999/xlink" version="1.1" viewBox="0 0 550 410" width="550" height="410"><g fill="#C0C5CB" fill-rule="none" stroke="none" stroke-width="1" stroke-linecap="butt" stroke-linejoin="miter" stroke-miterlimit="10" stroke-dasharray="" stroke-dashoffset="0" font-family="none" font-weight="none" font-size="none" text-anchor="none" style="mix-blend-mode: normal"><g data-paper-data="{&quot;isGlobalGroup&quot;:true,&quot;bounds&quot;:{&quot;x&quot;:125.371555791646,&quot;y&quot;:115,&quot;width&quot;:299.256888416708,&quot;height&quot;:240}}"><g data-paper-data="{&quot;isSecondaryText&quot;:true}" fill-rule="nonzero"><path d="M141.58648,346.32444h-4.24926v1.14618h1.49097v6.00114h1.27664v-6.00114h1.48165z" data-paper-data="{&quot;glyphName&quot;:&quot;T&quot;,&quot;glyphIndex&quot;:0,&quot;firstGlyphOfWord&quot;:true,&quot;word&quot;:1}"></path><path d="M149.26098,353.47176l-1.57483,-2.73033c0.86662,-0.27956 1.23937,-0.85731 1.23937,-1.91962v-0.37274c0,-1.51892 -0.81071,-2.15258 -2.54396,-2.15258h-1.8078v7.17528h1.28596v-2.52533h0.47525l1.42574,2.52533zM145.85039,349.76298v-2.28304h0.54979c0.99708,0 1.17414,0.3541 1.17414,1.03436v0.24228c0,0.68025 -0.26092,1.0064 -1.19277,1.0064z" data-paper-data="{&quot;glyphName&quot;:&quot;R&quot;,&quot;glyphIndex&quot;:1,&quot;word&quot;:1}"></path><path d="M155.06412,346.3058h-1.27664l-1.98485,7.16596h1.32323l0.37274,-1.26732h1.83575l0.36342,1.26732h1.32323zM153.81543,350.94643l0.59639,-2.65578l0.59639,2.65578z" data-paper-data="{&quot;glyphName&quot;:&quot;A&quot;,&quot;glyphIndex&quot;:2,&quot;word&quot;:1}"></path><path d="M164.54569,346.3058h-1.27664v1.69597l0.13978,3.02853l-2.10599,-4.7245h-1.27664v7.16596h1.27664v-1.82643l-0.11182,-2.72101l2.10599,4.54745h1.24868z" data-paper-data="{&quot;glyphName&quot;:&quot;N&quot;,&quot;glyphIndex&quot;:3,&quot;word&quot;:1}"></path><path d="M171.22759,348.16951h1.29528c-0.12114,-1.43506 -0.97845,-1.9103 -2.27372,-1.9103c-1.47233,0 -2.29236,0.69889 -2.29236,2.04076c0,1.48165 0.85731,1.88235 1.66802,1.98485c0.76412,0.1025 1.77052,0.1025 1.77052,0.95049c0,0.81071 -0.3541,1.13686 -1.12754,1.13686c-0.82003,0 -1.06231,-0.29819 -1.09027,-0.84799h-1.29528c0,1.1555 0.56843,2.02212 2.35759,2.02212c1.72393,0 2.44146,-0.69889 2.44146,-2.35759c0,-1.43506 -0.79208,-1.77052 -1.62143,-1.90098c-1.09027,-0.16773 -1.8078,-0.09319 -1.8078,-0.99708c0,-0.68025 0.28887,-0.9039 0.99708,-0.9039c0.62434,0 0.94117,0.17705 0.97845,0.78276z" data-paper-data="{&quot;glyphName&quot;:&quot;S&quot;,&quot;glyphIndex&quot;:4,&quot;word&quot;:1}"></path><path d="M180.22314,346.29648h-4.20266v7.1846h1.27664v-3.05648h2.47873v-1.16482h-2.47873v-1.78916h2.92602z" data-paper-data="{&quot;glyphName&quot;:&quot;F&quot;,&quot;glyphIndex&quot;:5,&quot;word&quot;:1}"></path><path d="M185.73433,353.53699c1.70529,0 2.45078,-0.66162 2.45078,-2.14326v-3.03785c0,-1.51892 -0.71753,-2.14326 -2.45078,-2.14326c-1.73325,0 -2.39487,0.62434 -2.39487,2.14326v3.03785c0,1.48165 0.68957,2.14326 2.39487,2.14326zM185.73433,352.40013c-0.93185,0 -1.10891,-0.39138 -1.10891,-1.07163v-2.90739c0,-0.6523 0.17705,-1.07163 1.10891,-1.07163c0.99708,0 1.16482,0.41933 1.16482,1.07163v2.90739c0,0.68025 -0.23296,1.07163 -1.16482,1.07163z" data-paper-data="{&quot;glyphName&quot;:&quot;O&quot;,&quot;glyphIndex&quot;:6,&quot;word&quot;:1}"></path><path d="M196.39864,353.47176l-1.57483,-2.73033c0.86662,-0.27956 1.23937,-0.85731 1.23937,-1.91962v-0.37274c0,-1.51892 -0.81071,-2.15258 -2.54396,-2.15258h-1.8078v7.17528h1.28596v-2.52533h0.47525l1.42574,2.52533zM192.98805,349.76298v-2.28304h0.54979c0.99708,0 1.17414,0.3541 1.17414,1.03436v0.24228c0,0.68025 -0.26092,1.0064 -1.19277,1.0064z" data-paper-data="{&quot;glyphName&quot;:&quot;R&quot;,&quot;glyphIndex&quot;:7,&quot;word&quot;:1}"></path><path d="M202.38998,351.77578l1.42574,-2.88875l-0.1491,2.05008v2.53464h1.28596v-7.17528h-1.23937l-1.47233,3.17762l-1.46301,-3.17762h-1.23937v7.17528h1.28596v-2.53464l-0.1491,-2.05008l1.42574,2.88875z" data-paper-data="{&quot;glyphName&quot;:&quot;M&quot;,&quot;glyphIndex&quot;:8,&quot;word&quot;:1}"></path><path d="M211.23925,346.3058h-1.27664l-1.98485,7.16596h1.32323l0.37274,-1.26732h1.83575l0.36342,1.26732h1.32323zM209.99057,350.94643l0.59639,-2.65578l0.59639,2.65578z" data-paper-data="{&quot;glyphName&quot;:&quot;A&quot;,&quot;glyphIndex&quot;:9,&quot;word&quot;:1}"></path><path d="M219.08254,351.77578l1.42574,-2.88875l-0.1491,2.05008v2.53464h1.28596v-7.17528h-1.23937l-1.47233,3.17762l-1.46301,-3.17762h-1.23937v7.17528h1.28596v-2.53464l-0.1491,-2.05008l1.42574,2.88875z" data-paper-data="{&quot;glyphName&quot;:&quot;M&quot;,&quot;glyphIndex&quot;:10,&quot;word&quot;:1}"></path><path d="M227.54361,353.53699c1.70529,0 2.45078,-0.66162 2.45078,-2.14326v-3.03785c0,-1.51892 -0.71753,-2.14326 -2.45078,-2.14326c-1.73325,0 -2.39487,0.62434 -2.39487,2.14326v3.03785c0,1.48165 0.68957,2.14326 2.39487,2.14326zM227.54361,352.40013c-0.93185,0 -1.10891,-0.39138 -1.10891,-1.07163v-2.90739c0,-0.6523 0.17705,-1.07163 1.10891,-1.07163c0.99708,0 1.16482,0.41933 1.16482,1.07163v2.90739c0,0.68025 -0.23296,1.07163 -1.16482,1.07163z" data-paper-data="{&quot;glyphName&quot;:&quot;O&quot;,&quot;glyphIndex&quot;:11,&quot;word&quot;:1}"></path><path d="M236.61543,348.16951h1.29528c-0.12114,-1.43506 -0.97845,-1.9103 -2.27372,-1.9103c-1.47233,0 -2.29236,0.69889 -2.29236,2.04076c0,1.48165 0.85731,1.88235 1.66802,1.98485c0.76412,0.1025 1.77052,0.1025 1.77052,0.95049c0,0.81071 -0.3541,1.13686 -1.12754,1.13686c-0.82003,0 -1.06231,-0.29819 -1.09027,-0.84799h-1.29528c0,1.1555 0.56843,2.02212 2.35759,2.02212c1.72393,0 2.44146,-0.69889 2.44146,-2.35759c0,-1.43506 -0.79208,-1.77052 -1.62143,-1.90098c-1.09027,-0.16773 -1.8078,-0.09319 -1.8078,-0.99708c0,-0.68025 0.28887,-0.9039 0.99708,-0.9039c0.62434,0 0.94117,0.17705 0.97845,0.78276z" data-paper-data="{&quot;glyphName&quot;:&quot;S&quot;,&quot;glyphIndex&quot;:12,&quot;lastGlyphOfWord&quot;:true,&quot;word&quot;:1}"></path><path d="M245.89099,346.29648v7.1846h4.25857v-1.17414h-2.97262v-1.89166h2.42282v-1.1555h-2.42282v-1.84507h2.84216v-1.11823z" data-paper-data="{&quot;glyphName&quot;:&quot;E&quot;,&quot;glyphIndex&quot;:13,&quot;firstGlyphOfWord&quot;:true,&quot;word&quot;:2}"></path><path d="M256.44596,348.16951h1.29528c-0.12114,-1.43506 -0.97845,-1.9103 -2.27372,-1.9103c-1.47233,0 -2.29236,0.69889 -2.29236,2.04076c0,1.48165 0.85731,1.88235 1.66802,1.98485c0.76412,0.1025 1.77052,0.1025 1.77052,0.95049c0,0.81071 -0.3541,1.13686 -1.12754,1.13686c-0.82003,0 -1.06231,-0.29819 -1.09027,-0.84799h-1.29528c0,1.1555 0.56843,2.02212 2.35759,2.02212c1.72393,0 2.44146,-0.69889 2.44146,-2.35759c0,-1.43506 -0.79208,-1.77052 -1.62143,-1.90098c-1.09027,-0.16773 -1.8078,-0.09319 -1.8078,-0.99708c0,-0.68025 0.28887,-0.9039 0.99708,-0.9039c0.62434,0 0.94117,0.17705 0.97845,0.78276z" data-paper-data="{&quot;glyphName&quot;:&quot;S&quot;,&quot;glyphIndex&quot;:14,&quot;word&quot;:2}"></path><path d="M261.25191,346.29648v7.17528h1.31391v-2.19918h0.49388c1.70529,0 2.54396,-0.68957 2.54396,-2.17122v-0.66162c0,-1.51892 -0.81071,-2.14326 -2.54396,-2.14326zM262.55651,350.03322v-2.5626h0.52184c0.99708,0 1.22073,0.3541 1.22073,1.03436v0.53116c0,0.68025 -0.30751,0.99708 -1.23937,0.99708z" data-paper-data="{&quot;glyphName&quot;:&quot;P&quot;,&quot;glyphIndex&quot;:15,&quot;word&quot;:2}"></path><path d="M271.15593,346.3058h-1.27664l-1.98485,7.16596h1.32323l0.37274,-1.26732h1.83575l0.36342,1.26732h1.32323zM269.90725,350.94643l0.59639,-2.65578l0.59639,2.65578z" data-paper-data="{&quot;glyphName&quot;:&quot;A&quot;,&quot;glyphIndex&quot;:16,&quot;word&quot;:2}"></path><path d="M279.58763,351.25395c0,0.70821 -0.23296,1.09959 -1.16482,1.09959c-0.93185,0 -1.10891,-0.39138 -1.10891,-1.07163v-2.78624c0,-0.68025 0.17705,-1.07163 1.10891,-1.07163c0.99708,0 1.16482,0.39138 1.16482,1.09027h1.28596c0,-1.59347 -0.71753,-2.22713 -2.45078,-2.22713c-1.73325,0 -2.39487,0.62434 -2.39487,2.14326v2.9167c0,1.48165 0.68957,2.14326 2.39487,2.14326c1.70529,0 2.45078,-0.66162 2.45078,-2.23645z" data-paper-data="{&quot;glyphName&quot;:&quot;C&quot;,&quot;glyphIndex&quot;:17,&quot;word&quot;:2}"></path><path d="M285.44411,346.3058h-1.29528v7.17528h1.29528z" data-paper-data="{&quot;glyphName&quot;:&quot;I&quot;,&quot;glyphIndex&quot;:18,&quot;word&quot;:2}"></path><path d="M291.26025,353.53699c1.70529,0 2.45078,-0.66162 2.45078,-2.14326v-3.03785c0,-1.51892 -0.71753,-2.14326 -2.45078,-2.14326c-1.73325,0 -2.39487,0.62434 -2.39487,2.14326v3.03785c0,1.48165 0.68957,2.14326 2.39487,2.14326zM291.26025,352.40013c-0.93185,0 -1.10891,-0.39138 -1.10891,-1.07163v-2.90739c0,-0.6523 0.17705,-1.07163 1.10891,-1.07163c0.99708,0 1.16482,0.41933 1.16482,1.07163v2.90739c0,0.68025 -0.23296,1.07163 -1.16482,1.07163z" data-paper-data="{&quot;glyphName&quot;:&quot;O&quot;,&quot;glyphIndex&quot;:19,&quot;word&quot;:2}"></path><path d="M300.33207,348.16951h1.29528c-0.12114,-1.43506 -0.97845,-1.9103 -2.27372,-1.9103c-1.47233,0 -2.29236,0.69889 -2.29236,2.04076c0,1.48165 0.85731,1.88235 1.66802,1.98485c0.76412,0.1025 1.77052,0.1025 1.77052,0.95049c0,0.81071 -0.3541,1.13686 -1.12754,1.13686c-0.82003,0 -1.06231,-0.29819 -1.09027,-0.84799h-1.29528c0,1.1555 0.56843,2.02212 2.35759,2.02212c1.72393,0 2.44146,-0.69889 2.44146,-2.35759c0,-1.43506 -0.79208,-1.77052 -1.62143,-1.90098c-1.09027,-0.16773 -1.8078,-0.09319 -1.8078,-0.99708c0,-0.68025 0.28887,-0.9039 0.99708,-0.9039c0.62434,0 0.94117,0.17705 0.97845,0.78276z" data-paper-data="{&quot;glyphName&quot;:&quot;S&quot;,&quot;glyphIndex&quot;:20,&quot;word&quot;:2}"></path><path d="M304.7752,355c0.84799,-0.32615 1.21141,-0.95981 1.11823,-2.05008h-1.08095c0,0.66162 0.11182,1.01572 -0.41933,1.4071z" data-paper-data="{&quot;glyphName&quot;:&quot;,&quot;,&quot;glyphIndex&quot;:21,&quot;lastGlyphOfWord&quot;:true,&quot;word&quot;:2}"></path><path d="M313.67043,346.29648v7.1846h4.25857v-1.17414h-2.97262v-1.89166h2.42282v-1.1555h-2.42282v-1.84507h2.84216v-1.11823z" data-paper-data="{&quot;glyphName&quot;:&quot;E&quot;,&quot;glyphIndex&quot;:22,&quot;firstGlyphOfWord&quot;:true,&quot;word&quot;:3}"></path><path d="M325.24773,352.29762h-2.76761v-6.00114h-1.29528v7.17528h4.06288z" data-paper-data="{&quot;glyphName&quot;:&quot;L&quot;,&quot;glyphIndex&quot;:23,&quot;word&quot;:3}"></path><path d="M328.37702,346.29648v7.1846h4.25857v-1.17414h-2.97262v-1.89166h2.42282v-1.1555h-2.42282v-1.84507h2.84216v-1.11823z" data-paper-data="{&quot;glyphName&quot;:&quot;E&quot;,&quot;glyphIndex&quot;:24,&quot;word&quot;:3}"></path><path d="M339.21836,346.3058l-0.62434,2.17122l-0.66162,3.37331l-0.67094,-3.35468l-0.62434,-2.18986h-1.31391l1.93826,7.17528h1.34187l1.92894,-7.17528z" data-paper-data="{&quot;glyphName&quot;:&quot;V&quot;,&quot;glyphIndex&quot;:25,&quot;word&quot;:3}"></path><path d="M345.77271,346.3058h-1.27664l-1.98485,7.16596h1.32323l0.37274,-1.26732h1.83575l0.36342,1.26732h1.32323zM344.52402,350.94643l0.59639,-2.65578l0.59639,2.65578z" data-paper-data="{&quot;glyphName&quot;:&quot;A&quot;,&quot;glyphIndex&quot;:26,&quot;word&quot;:3}"></path><path d="M353.61599,351.77578l1.42574,-2.88875l-0.1491,2.05008v2.53464h1.28596v-7.17528h-1.23937l-1.47233,3.17762l-1.46301,-3.17762h-1.23937v7.17528h1.28596v-2.53464l-0.1491,-2.05008l1.42574,2.88875z" data-paper-data="{&quot;glyphName&quot;:&quot;M&quot;,&quot;glyphIndex&quot;:27,&quot;word&quot;:3}"></path><path d="M362.07707,353.53699c1.70529,0 2.45078,-0.66162 2.45078,-2.14326v-3.03785c0,-1.51892 -0.71753,-2.14326 -2.45078,-2.14326c-1.73325,0 -2.39487,0.62434 -2.39487,2.14326v3.03785c0,1.48165 0.68957,2.14326 2.39487,2.14326zM362.07707,352.40013c-0.93185,0 -1.10891,-0.39138 -1.10891,-1.07163v-2.90739c0,-0.6523 0.17705,-1.07163 1.10891,-1.07163c0.99708,0 1.16482,0.41933 1.16482,1.07163v2.90739c0,0.68025 -0.23296,1.07163 -1.16482,1.07163z" data-paper-data="{&quot;glyphName&quot;:&quot;O&quot;,&quot;glyphIndex&quot;:28,&quot;word&quot;:3}"></path><path d="M371.14889,348.16951h1.29528c-0.12114,-1.43506 -0.97845,-1.9103 -2.27372,-1.9103c-1.47233,0 -2.29236,0.69889 -2.29236,2.04076c0,1.48165 0.85731,1.88235 1.66802,1.98485c0.76412,0.1025 1.77052,0.1025 1.77052,0.95049c0,0.81071 -0.3541,1.13686 -1.12754,1.13686c-0.82003,0 -1.06231,-0.29819 -1.09027,-0.84799h-1.29528c0,1.1555 0.56843,2.02212 2.35759,2.02212c1.72393,0 2.44146,-0.69889 2.44146,-2.35759c0,-1.43506 -0.79208,-1.77052 -1.62143,-1.90098c-1.09027,-0.16773 -1.8078,-0.09319 -1.8078,-0.99708c0,-0.68025 0.28887,-0.9039 0.99708,-0.9039c0.62434,0 0.94117,0.17705 0.97845,0.78276z" data-paper-data="{&quot;glyphName&quot;:&quot;S&quot;,&quot;glyphIndex&quot;:29,&quot;lastGlyphOfWord&quot;:true,&quot;word&quot;:3}"></path><path d="M383.416,346.3058l-0.62434,2.17122l-0.66162,3.37331l-0.67094,-3.35468l-0.62434,-2.18986h-1.31391l1.93826,7.17528h1.34187l1.92894,-7.17528z" data-paper-data="{&quot;glyphName&quot;:&quot;V&quot;,&quot;glyphIndex&quot;:30,&quot;firstGlyphOfWord&quot;:true,&quot;word&quot;:4}"></path><path d="M388.96783,346.3058h-1.29528v7.17528h1.29528z" data-paper-data="{&quot;glyphName&quot;:&quot;I&quot;,&quot;glyphIndex&quot;:31,&quot;word&quot;:4}"></path><path d="M392.50509,346.29648v7.17528h2.35759c1.70529,0 2.45078,-0.62434 2.45078,-2.10599v-2.92602c0,-1.51892 -0.71753,-2.14326 -2.45078,-2.14326zM393.78173,352.30694v-4.83632h1.09959c0.99708,0 1.14618,0.3541 1.14618,1.03436v2.79556c0,0.68025 -0.23296,1.0064 -1.16482,1.0064z" data-paper-data="{&quot;glyphName&quot;:&quot;D&quot;,&quot;glyphIndex&quot;:32,&quot;word&quot;:4}"></path><path d="M403.13877,346.3058h-1.27664l-1.98485,7.16596h1.32323l0.37274,-1.26732h1.83575l0.36342,1.26732h1.32323zM401.89009,350.94643l0.59639,-2.65578l0.59639,2.65578z" data-paper-data="{&quot;glyphName&quot;:&quot;A&quot;,&quot;glyphIndex&quot;:33,&quot;word&quot;:4}"></path><path d="M411.20908,348.16951h1.29528c-0.12114,-1.43506 -0.97845,-1.9103 -2.27372,-1.9103c-1.47233,0 -2.29236,0.69889 -2.29236,2.04076c0,1.48165 0.85731,1.88235 1.66802,1.98485c0.76412,0.1025 1.77052,0.1025 1.77052,0.95049c0,0.81071 -0.3541,1.13686 -1.12754,1.13686c-0.82003,0 -1.06231,-0.29819 -1.09027,-0.84799h-1.29528c0,1.1555 0.56843,2.02212 2.35759,2.02212c1.72393,0 2.44146,-0.69889 2.44146,-2.35759c0,-1.43506 -0.79208,-1.77052 -1.62143,-1.90098c-1.09027,-0.16773 -1.8078,-0.09319 -1.8078,-0.99708c0,-0.68025 0.28887,-0.9039 0.99708,-0.9039c0.62434,0 0.94117,0.17705 0.97845,0.78276z" data-paper-data="{&quot;glyphName&quot;:&quot;S&quot;,&quot;glyphIndex&quot;:34,&quot;lastGlyphOfWord&quot;:true,&quot;word&quot;:4}"></path></g><g data-paper-data="{&quot;isPrimaryText&quot;:true}" fill-rule="nonzero"><path d="M125.37156,339.15308v-18.19167h6.97835c2.1308,0 3.7866,0.50384 4.96742,1.51153c1.18082,1.00769 1.77122,2.4482 1.77122,4.32152c0,2.78779 -1.32731,4.59009 -3.98192,5.40689l4.78097,6.95172h-3.95529l-4.3415,-6.4057h-2.94316v6.4057zM128.64765,329.73763h3.62235c1.10979,0 1.97986,-0.19976 2.61022,-0.59929c0.63036,-0.39952 0.94554,-1.15418 0.94554,-2.26397c0,-1.12755 -0.31518,-1.88664 -0.94554,-2.27729c-0.63036,-0.39065 -1.50044,-0.58597 -2.61022,-0.58597h-3.62235z" data-paper-data="{&quot;glyphName&quot;:&quot;R&quot;,&quot;glyphIndex&quot;:0,&quot;firstGlyphOfWord&quot;:true,&quot;word&quot;:1}"></path><path d="M142.47119,330.07056c0,-1.49156 0.17313,-2.80111 0.51938,-3.92865c0.34625,-1.12755 0.79239,-2.02648 1.33841,-2.69679c0.54602,-0.67031 1.20523,-1.21633 1.97764,-1.63805c0.77241,-0.42172 1.52707,-0.70361 2.26397,-0.84566c0.7369,-0.14205 1.53151,-0.21308 2.38383,-0.21308c0.85232,0 1.64693,0.07103 2.38383,0.21308c0.7369,0.14205 1.49156,0.42394 2.26397,0.84566c0.77241,0.42172 1.43607,0.96774 1.99096,1.63805c0.55489,0.67031 1.00547,1.56924 1.35172,2.69679c0.34625,1.12755 0.51938,2.4371 0.51938,3.92865c0,1.4738 -0.17313,2.77891 -0.51938,3.91534c-0.34625,1.13642 -0.79683,2.03535 -1.35172,2.69679c-0.55489,0.66143 -1.21855,1.20301 -1.99096,1.62473c-0.77241,0.42172 -1.52707,0.70361 -2.26397,0.84566c-0.7369,0.14205 -1.53151,0.21308 -2.38383,0.21308c-0.85232,0 -1.64693,-0.07103 -2.38383,-0.21308c-0.7369,-0.14205 -1.49156,-0.42394 -2.26397,-0.84566c-0.77241,-0.42172 -1.43163,-0.9633 -1.97764,-1.62473c-0.54602,-0.66143 -0.99215,-1.56036 -1.33841,-2.69679c-0.34625,-1.13642 -0.51938,-2.44154 -0.51938,-3.91534zM145.74729,330.04393c0,1.36726 0.13539,2.49925 0.40618,3.39596c0.27079,0.89671 0.67031,1.55592 1.19857,1.97764c0.52826,0.42172 1.06984,0.70805 1.62473,0.85898c0.55489,0.15093 1.21411,0.2264 1.97764,0.2264c0.62148,0 1.15862,-0.03995 1.61141,-0.11986c0.45279,-0.0799 0.91891,-0.25081 1.39833,-0.51272c0.47943,-0.26191 0.87007,-0.62592 1.17194,-1.09203c0.30186,-0.46611 0.55268,-1.09869 0.75244,-1.89774c0.19976,-0.79905 0.29964,-1.74459 0.29964,-2.83662c0,-1.3495 -0.13539,-2.47261 -0.40618,-3.36932c-0.27079,-0.89671 -0.67475,-1.55592 -1.21189,-1.97764c-0.53714,-0.42172 -1.07872,-0.70361 -1.62473,-0.84566c-0.54602,-0.14205 -1.20967,-0.21308 -1.99096,-0.21308c-0.60373,0 -1.13199,0.03995 -1.58478,0.11986c-0.45279,0.0799 -0.92113,0.25303 -1.40499,0.51938c-0.48387,0.26635 -0.87451,0.62592 -1.17194,1.07872c-0.29742,0.45279 -0.54602,1.07428 -0.74578,1.86445c-0.19976,0.79017 -0.29964,1.73127 -0.29964,2.8233z" data-paper-data="{&quot;glyphName&quot;:&quot;O&quot;,&quot;glyphIndex&quot;:1,&quot;word&quot;:1}"></path><path d="M162.76701,326.03537c0,-1.74903 0.61704,-3.06746 1.85113,-3.95529c1.23409,-0.88783 2.77891,-1.33175 4.63448,-1.33175c1.63361,0 3.26278,0.41728 4.88751,1.25184v3.18288c-1.40277,-0.92334 -2.90321,-1.38502 -4.50131,-1.38502c-1.00325,0 -1.85335,0.17313 -2.5503,0.51938c-0.69695,0.34625 -1.04542,0.89227 -1.04542,1.63805c0,0.60373 0.3174,1.0765 0.9522,1.41831c0.6348,0.34182 1.40277,0.63036 2.30392,0.86564c0.90115,0.23528 1.80674,0.53048 2.71676,0.88561c0.91003,0.35513 1.68244,0.96996 2.31724,1.84447c0.6348,0.87451 0.9522,2.00428 0.9522,3.3893c0,1.4738 -0.60816,2.67681 -1.82449,3.60903c-1.21633,0.93222 -2.69901,1.39833 -4.44804,1.39833c-2.30836,0 -4.31042,-0.51494 -6.00618,-1.54483v-3.32937c1.56258,1.16306 3.31161,1.74459 5.24708,1.74459c2.50368,0 3.75553,-0.69695 3.75553,-2.09084c0,-0.63036 -0.2264,-1.15418 -0.67919,-1.57146c-0.45279,-0.41728 -1.02545,-0.7258 -1.71795,-0.92556c-0.69251,-0.19976 -1.43385,-0.43504 -2.22402,-0.70583c-0.79017,-0.27079 -1.53151,-0.56599 -2.22402,-0.88561c-0.69251,-0.31962 -1.26516,-0.81902 -1.71795,-1.49822c-0.45279,-0.67919 -0.67919,-1.52041 -0.67919,-2.52366z" data-paper-data="{&quot;glyphName&quot;:&quot;S&quot;,&quot;glyphIndex&quot;:2,&quot;word&quot;:1}"></path><path d="M177.14988,339.15308l7.23139,-18.19167h3.59572l7.23139,18.19167h-3.51581l-1.66468,-4.36813h-7.6975l-1.66468,4.36813zM183.44905,331.81515h5.43353l-2.70345,-7.13816z" data-paper-data="{&quot;glyphName&quot;:&quot;A&quot;,&quot;glyphIndex&quot;:3,&quot;word&quot;:1}"></path><path d="M198.21812,339.15308v-18.19167h3.2761v15.08869h8.74958v3.10297z" data-paper-data="{&quot;glyphName&quot;:&quot;L&quot;,&quot;glyphIndex&quot;:4,&quot;word&quot;:1}"></path><path d="M213.18696,339.15308v-18.19167h12.10558v2.94316h-8.82948v4.60784h7.65755v3.08965h-7.65755v4.60784h8.82948v2.94316z" data-paper-data="{&quot;glyphName&quot;:&quot;E&quot;,&quot;glyphIndex&quot;:5,&quot;word&quot;:1}"></path><path d="M228.43546,326.03537c0,-1.74903 0.61704,-3.06746 1.85113,-3.95529c1.23409,-0.88783 2.77891,-1.33175 4.63448,-1.33175c1.63361,0 3.26278,0.41728 4.88751,1.25184v3.18288c-1.40277,-0.92334 -2.90321,-1.38502 -4.50131,-1.38502c-1.00325,0 -1.85335,0.17313 -2.5503,0.51938c-0.69695,0.34625 -1.04542,0.89227 -1.04542,1.63805c0,0.60373 0.3174,1.0765 0.9522,1.41831c0.6348,0.34182 1.40277,0.63036 2.30392,0.86564c0.90115,0.23528 1.80674,0.53048 2.71676,0.88561c0.91003,0.35513 1.68244,0.96996 2.31724,1.84447c0.6348,0.87451 0.9522,2.00428 0.9522,3.3893c0,1.4738 -0.60816,2.67681 -1.82449,3.60903c-1.21633,0.93222 -2.69901,1.39833 -4.44804,1.39833c-2.30836,0 -4.31042,-0.51494 -6.00618,-1.54483v-3.32937c1.56258,1.16306 3.31161,1.74459 5.24708,1.74459c2.50368,0 3.75553,-0.69695 3.75553,-2.09084c0,-0.63036 -0.2264,-1.15418 -0.67919,-1.57146c-0.45279,-0.41728 -1.02545,-0.7258 -1.71795,-0.92556c-0.69251,-0.19976 -1.43385,-0.43504 -2.22402,-0.70583c-0.79017,-0.27079 -1.53151,-0.56599 -2.22402,-0.88561c-0.69251,-0.31962 -1.26516,-0.81902 -1.71795,-1.49822c-0.45279,-0.67919 -0.67919,-1.52041 -0.67919,-2.52366z" data-paper-data="{&quot;glyphName&quot;:&quot;S&quot;,&quot;glyphIndex&quot;:6,&quot;lastGlyphOfWord&quot;:true,&quot;word&quot;:1}"></path><path d="M254.19145,339.15308v-18.19167h6.27253c2.81443,0 4.94966,0.77241 6.4057,2.31724c1.45604,1.54483 2.18407,3.8088 2.18407,6.79191c0,2.96536 -0.7258,5.22045 -2.17741,6.76528c-1.4516,1.54483 -3.58906,2.31724 -6.41236,2.31724zM257.46755,336.18328h2.99643c1.89108,0 3.25168,-0.47721 4.0818,-1.43163c0.83012,-0.95442 1.24518,-2.51478 1.24518,-4.68109c0,-2.18407 -0.41506,-3.75331 -1.24518,-4.70773c-0.83012,-0.95442 -2.19072,-1.43163 -4.0818,-1.43163h-2.99643z" data-paper-data="{&quot;glyphName&quot;:&quot;D&quot;,&quot;glyphIndex&quot;:7,&quot;firstGlyphOfWord&quot;:true,&quot;word&quot;:2}"></path><path d="M273.08894,339.15308v-18.19167h12.10558v2.94316h-8.82948v4.60784h7.65755v3.08965h-7.65755v4.60784h8.82948v2.94316z" data-paper-data="{&quot;glyphName&quot;:&quot;E&quot;,&quot;glyphIndex&quot;:8,&quot;word&quot;:2}"></path><path d="M288.33745,326.03537c0,-1.74903 0.61704,-3.06746 1.85113,-3.95529c1.23409,-0.88783 2.77891,-1.33175 4.63448,-1.33175c1.63361,0 3.26278,0.41728 4.88751,1.25184v3.18288c-1.40277,-0.92334 -2.90321,-1.38502 -4.50131,-1.38502c-1.00325,0 -1.85335,0.17313 -2.5503,0.51938c-0.69695,0.34625 -1.04542,0.89227 -1.04542,1.63805c0,0.60373 0.3174,1.0765 0.9522,1.41831c0.6348,0.34182 1.40277,0.63036 2.30392,0.86564c0.90115,0.23528 1.80674,0.53048 2.71676,0.88561c0.91003,0.35513 1.68244,0.96996 2.31724,1.84447c0.6348,0.87451 0.9522,2.00428 0.9522,3.3893c0,1.4738 -0.60816,2.67681 -1.82449,3.60903c-1.21633,0.93222 -2.69901,1.39833 -4.44804,1.39833c-2.30836,0 -4.31042,-0.51494 -6.00618,-1.54483v-3.32937c1.56258,1.16306 3.31161,1.74459 5.24708,1.74459c2.50368,0 3.75553,-0.69695 3.75553,-2.09084c0,-0.63036 -0.2264,-1.15418 -0.67919,-1.57146c-0.45279,-0.41728 -1.02545,-0.7258 -1.71795,-0.92556c-0.69251,-0.19976 -1.43385,-0.43504 -2.22402,-0.70583c-0.79017,-0.27079 -1.53151,-0.56599 -2.22402,-0.88561c-0.69251,-0.31962 -1.26516,-0.81902 -1.71795,-1.49822c-0.45279,-0.67919 -0.67919,-1.52041 -0.67919,-2.52366z" data-paper-data="{&quot;glyphName&quot;:&quot;S&quot;,&quot;glyphIndex&quot;:9,&quot;word&quot;:2}"></path><path d="M302.72032,339.15308l7.23139,-18.19167h3.59572l7.23139,18.19167h-3.51581l-1.66468,-4.36813h-7.6975l-1.66468,4.36813zM309.01948,331.81515h5.43353l-2.70345,-7.13816z" data-paper-data="{&quot;glyphName&quot;:&quot;A&quot;,&quot;glyphIndex&quot;:10,&quot;word&quot;:2}"></path><path d="M323.57548,339.15308v-18.19167h6.97835c2.1308,0 3.7866,0.50384 4.96742,1.51153c1.18082,1.00769 1.77122,2.4482 1.77122,4.32152c0,2.78779 -1.32731,4.59009 -3.98192,5.40689l4.78097,6.95172h-3.95529l-4.3415,-6.4057h-2.94316v6.4057zM326.85157,329.73763h3.62235c1.10979,0 1.97986,-0.19976 2.61022,-0.59929c0.63036,-0.39952 0.94554,-1.15418 0.94554,-2.26397c0,-1.12755 -0.31518,-1.88664 -0.94554,-2.27729c-0.63036,-0.39065 -1.50044,-0.58597 -2.61022,-0.58597h-3.62235z" data-paper-data="{&quot;glyphName&quot;:&quot;R&quot;,&quot;glyphIndex&quot;:11,&quot;word&quot;:2}"></path><path d="M341.38093,339.15308v-18.19167h6.97835c2.1308,0 3.7866,0.50384 4.96742,1.51153c1.18082,1.00769 1.77122,2.4482 1.77122,4.32152c0,2.78779 -1.32731,4.59009 -3.98192,5.40689l4.78097,6.95172h-3.95529l-4.3415,-6.4057h-2.94316v6.4057zM344.65703,329.73763h3.62235c1.10979,0 1.97986,-0.19976 2.61022,-0.59929c0.63036,-0.39952 0.94554,-1.15418 0.94554,-2.26397c0,-1.12755 -0.31518,-1.88664 -0.94554,-2.27729c-0.63036,-0.39065 -1.50044,-0.58597 -2.61022,-0.58597h-3.62235z" data-paper-data="{&quot;glyphName&quot;:&quot;R&quot;,&quot;glyphIndex&quot;:12,&quot;word&quot;:2}"></path><path d="M358.48057,330.07056c0,-1.49156 0.17313,-2.80111 0.51938,-3.92865c0.34625,-1.12755 0.79239,-2.02648 1.33841,-2.69679c0.54602,-0.67031 1.20523,-1.21633 1.97764,-1.63805c0.77241,-0.42172 1.52707,-0.70361 2.26397,-0.84566c0.7369,-0.14205 1.53151,-0.21308 2.38383,-0.21308c0.85232,0 1.64693,0.07103 2.38383,0.21308c0.7369,0.14205 1.49156,0.42394 2.26397,0.84566c0.77241,0.42172 1.43607,0.96774 1.99096,1.63805c0.55489,0.67031 1.00547,1.56924 1.35172,2.69679c0.34625,1.12755 0.51938,2.4371 0.51938,3.92865c0,1.4738 -0.17313,2.77891 -0.51938,3.91534c-0.34625,1.13642 -0.79683,2.03535 -1.35172,2.69679c-0.55489,0.66143 -1.21855,1.20301 -1.99096,1.62473c-0.77241,0.42172 -1.52707,0.70361 -2.26397,0.84566c-0.7369,0.14205 -1.53151,0.21308 -2.38383,0.21308c-0.85232,0 -1.64693,-0.07103 -2.38383,-0.21308c-0.7369,-0.14205 -1.49156,-0.42394 -2.26397,-0.84566c-0.77241,-0.42172 -1.43163,-0.9633 -1.97764,-1.62473c-0.54602,-0.66143 -0.99215,-1.56036 -1.33841,-2.69679c-0.34625,-1.13642 -0.51938,-2.44154 -0.51938,-3.91534zM361.75666,330.04393c0,1.36726 0.13539,2.49925 0.40618,3.39596c0.27079,0.89671 0.67031,1.55592 1.19857,1.97764c0.52826,0.42172 1.06984,0.70805 1.62473,0.85898c0.55489,0.15093 1.21411,0.2264 1.97764,0.2264c0.62148,0 1.15862,-0.03995 1.61141,-0.11986c0.45279,-0.0799 0.91891,-0.25081 1.39833,-0.51272c0.47943,-0.26191 0.87007,-0.62592 1.17194,-1.09203c0.30186,-0.46611 0.55268,-1.09869 0.75244,-1.89774c0.19976,-0.79905 0.29964,-1.74459 0.29964,-2.83662c0,-1.3495 -0.13539,-2.47261 -0.40618,-3.36932c-0.27079,-0.89671 -0.67475,-1.55592 -1.21189,-1.97764c-0.53714,-0.42172 -1.07872,-0.70361 -1.62473,-0.84566c-0.54602,-0.14205 -1.20967,-0.21308 -1.99096,-0.21308c-0.60373,0 -1.13199,0.03995 -1.58478,0.11986c-0.45279,0.0799 -0.92113,0.25303 -1.40499,0.51938c-0.48387,0.26635 -0.87451,0.62592 -1.17194,1.07872c-0.29742,0.45279 -0.54602,1.07428 -0.74578,1.86445c-0.19976,0.79017 -0.29964,1.73127 -0.29964,2.8233z" data-paper-data="{&quot;glyphName&quot;:&quot;O&quot;,&quot;glyphIndex&quot;:13,&quot;word&quot;:2}"></path><path d="M379.28246,339.15308v-18.19167h3.2761v15.08869h8.74958v3.10297z" data-paper-data="{&quot;glyphName&quot;:&quot;L&quot;,&quot;glyphIndex&quot;:14,&quot;word&quot;:2}"></path><path d="M394.25129,339.15308v-18.19167h3.2761v15.08869h8.74958v3.10297z" data-paper-data="{&quot;glyphName&quot;:&quot;L&quot;,&quot;glyphIndex&quot;:15,&quot;word&quot;:2}"></path><path d="M407.63535,330.07056c0,-1.49156 0.17313,-2.80111 0.51938,-3.92865c0.34625,-1.12755 0.79239,-2.02648 1.33841,-2.69679c0.54602,-0.67031 1.20523,-1.21633 1.97764,-1.63805c0.77241,-0.42172 1.52707,-0.70361 2.26397,-0.84566c0.7369,-0.14205 1.53151,-0.21308 2.38383,-0.21308c0.85232,0 1.64693,0.07103 2.38383,0.21308c0.7369,0.14205 1.49156,0.42394 2.26397,0.84566c0.77241,0.42172 1.43607,0.96774 1.99096,1.63805c0.55489,0.67031 1.00547,1.56924 1.35172,2.69679c0.34625,1.12755 0.51938,2.4371 0.51938,3.92865c0,1.4738 -0.17313,2.77891 -0.51938,3.91534c-0.34625,1.13642 -0.79683,2.03535 -1.35172,2.69679c-0.55489,0.66143 -1.21855,1.20301 -1.99096,1.62473c-0.77241,0.42172 -1.52707,0.70361 -2.26397,0.84566c-0.7369,0.14205 -1.53151,0.21308 -2.38383,0.21308c-0.85232,0 -1.64693,-0.07103 -2.38383,-0.21308c-0.7369,-0.14205 -1.49156,-0.42394 -2.26397,-0.84566c-0.77241,-0.42172 -1.43163,-0.9633 -1.97764,-1.62473c-0.54602,-0.66143 -0.99215,-1.56036 -1.33841,-2.69679c-0.34625,-1.13642 -0.51938,-2.44154 -0.51938,-3.91534zM410.91145,330.04393c0,1.36726 0.13539,2.49925 0.40618,3.39596c0.27079,0.89671 0.67031,1.55592 1.19857,1.97764c0.52826,0.42172 1.06984,0.70805 1.62473,0.85898c0.55489,0.15093 1.21411,0.2264 1.97764,0.2264c0.62148,0 1.15862,-0.03995 1.61141,-0.11986c0.45279,-0.0799 0.91891,-0.25081 1.39833,-0.51272c0.47943,-0.26191 0.87007,-0.62592 1.17194,-1.09203c0.30186,-0.46611 0.55268,-1.09869 0.75244,-1.89774c0.19976,-0.79905 0.29964,-1.74459 0.29964,-2.83662c0,-1.3495 -0.13539,-2.47261 -0.40618,-3.36932c-0.27079,-0.89671 -0.67475,-1.55592 -1.21189,-1.97764c-0.53714,-0.42172 -1.07872,-0.70361 -1.62473,-0.84566c-0.54602,-0.14205 -1.20967,-0.21308 -1.99096,-0.21308c-0.60373,0 -1.13199,0.03995 -1.58478,0.11986c-0.45279,0.0799 -0.92113,0.25303 -1.40499,0.51938c-0.48387,0.26635 -0.87451,0.62592 -1.17194,1.07872c-0.29742,0.45279 -0.54602,1.07428 -0.74578,1.86445c-0.19976,0.79017 -0.29964,1.73127 -0.29964,2.8233z" data-paper-data="{&quot;glyphName&quot;:&quot;O&quot;,&quot;glyphIndex&quot;:16,&quot;lastGlyphOfWord&quot;:true,&quot;word&quot;:2}"></path></g><g data-paper-data="{&quot;fillRule&quot;:&quot;evenodd&quot;,&quot;fillRuleOriginal&quot;:&quot;evenodd&quot;,&quot;isIcon&quot;:true,&quot;iconStyle&quot;:&quot;standalone&quot;,&quot;selectedEffects&quot;:{&quot;container&quot;:&quot;&quot;,&quot;transformation&quot;:&quot;&quot;,&quot;pattern&quot;:&quot;&quot;},&quot;bounds&quot;:{&quot;x&quot;:197.1112222419185,&quot;y&quot;:115,&quot;width&quot;:155.777555516163,&quot;height&quot;:176.48318368678434},&quot;iconType&quot;:&quot;icon&quot;,&quot;isDetailed&quot;:false,&quot;source&quot;:&quot;ai&quot;,&quot;rawIconId&quot;:&quot;yS7jEfIlsdy0jHuwrTEEWQTQbLbOqIhjZauEl2Kths&quot;,&quot;suitableAsStandaloneIcon&quot;:true}" fill-rule="evenodd"><path d="M222.03168,138.46571c-0.13522,-15.83119 0.03643,-21.89396 0.64178,-22.62333c0.70204,-0.84568 6.8846,-0.95989 40.82349,-0.7532c45.41547,0.27676 43.83194,0.09529 56.81173,6.50347c14.17484,6.99738 23.5026,17.77203 28.97736,33.47007c2.36632,6.7846 2.49317,7.61601 2.48524,16.25851c-0.00965,10.93816 -1.04029,15.47606 -5.64367,24.84655c-2.75066,5.60128 -4.24663,7.61566 -9.63316,12.97496c-6.60571,6.57262 -12.4717,10.50764 -19.5138,13.08802c-2.21638,0.81278 -4.02878,1.70968 -4.02878,1.99406c0,0.28368 1.51665,2.84338 3.37145,5.68641c1.85445,2.84338 7.25373,11.31767 11.99948,18.83234c4.74539,7.51433 10.4418,16.50014 12.65922,19.96845c6.95248,10.87681 11.90676,19.2832 11.90676,20.20319c0,2.39838 -1.45805,2.56797 -22.10211,2.56797c-18.58175,0 -20.51479,-0.11065 -21.46787,-1.22607c-0.95205,-1.11543 -4.13736,-6.18691 -22.07384,-35.14979l-5.82257,-9.40118v-24.70558c0,-19.96742 -0.17373,-25.15988 2.0037,-26.48213c0.92205,-0.56048 2.26671,-0.4257 4.22525,-0.4257c10.07368,0 18.83061,-5.29277 22.60433,-13.66297c1.2016,-2.66517 1.57215,-4.76022 1.54837,-8.75798c-0.04137,-7.01624 -1.98716,-11.49416 -6.97694,-16.0548c-5.3686,-4.90672 -8.17338,-5.66538 -20.9336,-5.66538h-10.59106l-2.67413,-3.50684c-3.82437,-5.01457 -6.59537,-7.18659 -8.54392,-6.69754c-0.88001,0.22071 -9.6597,4.99427 -19.51104,10.6087c-9.85169,5.61334 -18.46145,10.10056 -19.13409,9.97164c-1.12595,-0.21647 -1.23666,-1.93477 -1.40759,-21.86185zM240.43419,158.47622c9.24882,-5.24555 17.90753,-10.09838 19.2408,-10.78292c1.33397,-0.68453 2.63932,-1.24504 2.9006,-1.24504c0.98238,0 3.48865,2.73883 11.40109,12.46329c6.13141,7.53466 8.14649,10.50351 8.14649,12.00051c0,2.37804 -1.02581,3.35629 -3.85368,3.67582l-2.10194,0.23681l-0.17925,57.38667c-0.13133,41.95956 -0.39605,57.64692 -0.98445,58.35664c-0.58667,0.70697 -2.24913,0.91516 -6.12659,0.76729l-5.32138,-0.20234l-0.17959,-58.32941c-0.12099,-39.58532 -0.41191,-58.32907 -0.90379,-58.32907c-0.39778,0 -2.02129,0.66181 -3.60687,1.47047c-3.49829,1.78448 -53.5291,29.7743 -55.71657,31.16996c-2.2827,1.45736 -4.22702,1.21057 -5.47488,-0.69353c-1.04747,-1.59835 -0.90455,-2.19673 2.79771,-11.73613c7.47807,-19.26941 5.9114,-16.9703 15.09063,-22.13692c4.43094,-2.49455 15.62314,-8.82692 24.87165,-14.07212zM212.23304,209.29027c1.8217,-1.35154 31.86697,-18.38148 40.81315,-23.13343c2.65656,-1.41083 2.90956,-1.416 3.42798,-0.06446c0.53186,1.38532 0.54599,20.44241 0.01689,22.41267c-0.24715,0.92068 -2.09711,2.28532 -5.06975,3.74061c-2.57486,1.25985 -10.11952,5.27657 -16.76728,8.92722c-11.34997,6.23137 -12.08634,6.76048 -12.08634,8.67111c0,3.25874 1.99054,3.80301 6.05572,1.65694c6.50423,-3.43384 13.94859,-7.49468 20.06655,-10.94678c3.38489,-1.90926 6.62398,-3.29183 7.1972,-3.07191c0.88207,0.33849 1.01375,2.43078 0.85278,13.5537l-0.19062,13.15317l-16.25645,0.35021c-10.69274,0.2306 -16.5271,0.6208 -17.04555,1.14094c-0.43441,0.435 -0.68594,1.69624 -0.55913,2.80236l0.22981,2.01232l33.63131,0.70076v13.31242l-16.05962,0.18855c-10.77678,0.12685 -16.37709,0.45258 -17.02659,0.99134c-0.54582,0.45327 -0.87511,1.74449 -0.75598,2.96437l0.21088,2.16157l33.63131,0.70076l0.19682,9.01098c0.13167,6.04524 -0.06929,9.33052 -0.61149,9.98439c-0.65733,0.79177 -4.78711,0.97307 -22.13795,0.97307c-13.36354,0 -21.83652,-0.27127 -22.6857,-0.72524c-1.31511,-0.70421 -1.35506,-1.8903 -1.35506,-40.2516v-39.52672z" data-paper-data="{&quot;isPathIcon&quot;:true}"></path></g></g></g></svg>